Coordinates
version=1
nRows=20
nColumns=34
inDegrees=yes

Units are S.I. units (second, meters, Newtons, ...)
If the header above contains a line with 'inDegrees', this indicates whether rotational values are in degrees (yes) or radians (no).

endheader
time	pelvis_tilt	pelvis_list	pelvis_rotation	pelvis_tx	pelvis_ty	pelvis_tz	hip_flexion_r	hip_adduction_r	hip_rotation_r	knee_angle_r	ankle_angle_r	subtalar_angle_r	mtp_angle_r	hip_flexion_l	hip_adduction_l	hip_rotation_l	knee_angle_l	ankle_angle_l	subtalar_angle_l	mtp_angle_l	lumbar_extension	lumbar_bending	lumbar_rotation	arm_flex_r	arm_add_r	arm_rot_r	elbow_flex_r	pro_sup_r	arm_flex_l	arm_add_l	arm_rot_l	elbow_flex_l	pro_sup_l
      7.91666670	      4.68586127	     -1.27363065	     -1.04300688	     -0.58489438	      0.61391576	     -0.68470999	     69.60134392	      4.34342624	     -9.25745065	     26.18628614	      7.53135615	     19.53869073	      0.00000000	     71.90048205	      4.12369450	     -4.41370140	     28.60029352	     -0.80544053	      3.46996403	      0.00000000	    -28.41523450	      1.50166100	     23.04874353	     55.76782812	    -30.20538559	     11.10134222	     59.39555501	     92.57272301	     92.77702594	    -15.30505092	     16.96786159	     80.08798922	     79.56606929
      7.93333330	      4.65110706	     -1.37718379	      0.44252962	     -0.58829609	      0.61253961	     -0.67608227	     69.35621427	      3.75822052	     -9.58424056	     24.38699202	      2.68173786	     24.17071391	      0.00000000	     72.61729918	      4.72063662	     -5.27732426	     28.77406658	     -2.86234106	      3.86284714	      0.00000000	    -29.18807086	      1.82719319	     23.89740359	     59.88118494	    -29.83632131	     11.52370516	     57.51876441	     91.98213626	     98.78229731	    -13.70288657	     18.75702083	     77.43592071	     80.53134802
      7.95000000	      2.77260955	     -1.45410266	      0.51123430	     -0.57779064	      0.60818118	     -0.67490374	     72.06664248	      3.72022524	     -9.60648792	     26.88931078	      3.93192218	     22.33621262	      0.00000000	     74.40563434	      4.65246944	     -4.69940796	     27.88178730	     -4.18498549	      2.63570161	      0.00000000	    -27.94533792	      2.38709224	     24.89261994	     62.89619239	    -28.19929404	     11.70133784	     57.04710606	     91.53795509	    102.98186113	    -13.52080485	     18.87802462	     75.82946942	     80.98740267
      7.96666670	      0.21839732	     -1.44027421	      0.93119046	     -0.57558915	      0.60561711	     -0.67505993	     75.93927376	      3.01041838	    -10.09185418	     30.04176307	      4.33019130	     21.59356691	      0.00000000	     77.31725184	      5.06391055	     -4.22061809	     28.73849969	     -4.55763947	      2.40939166	      0.00000000	    -25.85337366	      2.87088949	     25.54360543	     65.52220759	    -26.84951360	     11.36814446	     55.21490795	     90.57452258	    106.68472492	    -13.10811324	     19.87615145	     75.15371418	     81.97468979
      7.98333330	     -1.72878317	     -1.09261419	      1.15561531	     -0.57248246	      0.60512445	     -0.67587274	     78.55786805	      2.43527257	    -10.13909525	     32.40031508	      5.63691790	     20.27798737	      0.00000000	     78.92240789	      5.50733913	     -3.68372651	     27.44222619	     -7.19462767	      0.84701056	      0.00000000	    -24.49513619	      3.02983160	     26.49877927	     67.32262188	    -26.60317242	     11.17312949	     54.53490243	     90.19281932	    108.96206357	    -12.46168698	     19.28871939	     75.65183131	     82.34089343
      8.00000000	     -3.92357441	     -0.33419294	      1.21372292	     -0.56744343	      0.60124161	     -0.67748624	     81.48848207	      1.46606521	    -10.18163080	     34.67728286	      8.02980786	     18.53429825	      0.00000000	     81.14902751	      6.39148690	     -3.30449909	     28.45560836	     -5.80358080	      1.00922030	      0.00000000	    -22.61537470	      2.82422559	     26.95143114	     68.36619987	    -26.06915907	     10.87402819	     53.64880155	     89.73494911	    111.17524856	    -11.46526023	     18.86969544	     75.99221082	     82.77547358
      8.01666670	     -5.34133032	      0.31953119	      0.98783352	     -0.56814299	      0.59954388	     -0.67354347	     83.33500970	      1.21338906	     -9.58353059	     36.02183779	      9.67246332	     17.94815485	      0.00000000	     82.93009283	      6.32104160	     -3.65613725	     28.69324014	     -6.22286785	      2.33748393	      0.00000000	    -22.12812318	      2.25156128	     27.26887352	     69.97879252	    -25.55348318	     10.53872410	     53.04133383	     89.19922989	    114.22812901	    -10.60208584	     18.62812293	     75.33583408	     83.33399331
      8.03333330	     -7.07773001	      0.87202383	      1.50140928	     -0.56392771	      0.59322692	     -0.67258607	     85.83459557	      0.50954078	     -8.85096757	     37.13612295	     10.78618295	     15.85597715	      0.00000000	     85.58109318	      7.19163512	     -2.57331183	     30.43238889	     -5.07382225	     -0.15282891	      0.00000000	    -21.26270347	      1.77227842	     27.11565523	     71.30885684	    -25.25927107	      9.37192651	     52.31600783	     87.88215872	    117.97860959	     -9.01468285	     19.82627482	     73.19415871	     84.69565491
      8.05000000	     -8.25974712	      1.26103336	      1.78160321	     -0.56537180	      0.59213181	     -0.66771121	     87.37086542	      0.41788560	     -8.60077652	     38.28666404	     12.26018377	     14.48476940	      0.00000000	     87.14535038	      7.45509924	     -2.45755522	     30.52868660	     -5.89693838	      0.25872089	      0.00000000	    -21.42160264	      1.23694809	     26.75107825	     72.75996891	    -24.30694348	      8.62078507	     52.21749317	     87.23129544	    121.67110418	     -7.90876401	     20.12109162	     71.44251442	     85.26779461
      8.06666670	     -9.08061490	      1.33321114	      2.71883698	     -0.56237797	      0.58549609	     -0.66428082	     89.21621499	     -0.00484901	     -8.25777280	     39.51122848	     13.09629840	     12.76193448	      0.00000000	     88.82724757	      7.98385760	     -1.79347479	     31.80553616	     -5.66082704	     -0.49898347	      0.00000000	    -22.06004537	      0.76026070	     25.61754845	     74.78273118	    -23.31255504	      7.46625888	     51.19241953	     86.24864332	    127.61776521	     -5.98359327	     22.96644336	     66.59069831	     86.15483389
      8.08333330	     -9.32543030	      1.33562566	      3.56851607	     -0.56251695	      0.58588097	     -0.66512627	     89.68252862	     -0.60762779	     -7.96526685	     40.06484811	     13.32199884	     10.76865536	      0.00000000	     89.44807392	      8.82475762	     -1.31235625	     32.26888933	     -6.17713511	     -1.05897433	      0.00000000	    -23.77876517	      0.72334746	     24.86403148	     77.66495942	    -22.67415366	      6.17342594	     50.00182620	     85.54797344	    132.69193053	     -4.11928510	     24.00334266	     62.80765914	     86.52102284
      8.10000000	     -9.68885754	      1.60877815	      3.93493541	     -0.56005404	      0.58487238	     -0.66471515	     90.45751807	     -1.06296621	     -7.47493715	     41.37772874	     14.97222072	      8.84538248	      0.00000000	     89.95749439	      9.06028362	     -1.26571757	     32.08841399	     -6.57069102	     -0.83632745	      0.00000000	    -25.45996824	     -0.02951348	     24.11092225	     80.22594560	    -22.28007720	      4.97758384	     48.11079170	     84.29897967	    139.28783942	     -1.63625260	     28.41144366	     56.71282557	     87.06273638
      8.11666670	    -10.15976789	      1.91582478	      3.71498100	     -0.55618067	      0.58511895	     -0.66523368	     91.15537563	     -0.83298282	     -6.53033205	     41.70251188	     15.34874025	      6.02254944	      0.00000000	     90.37655000	      8.93636631	     -1.21955318	     31.83380548	     -7.05850766	      0.94381675	      0.00000000	    -27.30197378	     -0.44806638	     23.94936999	     83.17199981	    -21.33829368	      3.63415357	     45.64311764	     83.21129016	    144.56136505	      0.42950856	     31.35057253	     51.70530125	     86.88682040
      8.13333330	    -10.46844952	      2.02084527	      3.55540346	     -0.55215918	      0.58336082	     -0.67049005	     91.35547993	     -0.81604521	     -6.05889972	     41.24520811	     15.14615316	      5.08448086	      0.00000000	     90.60273207	      8.89376722	     -1.27237980	     32.08090431	     -6.24991722	     -0.09542596	      0.00000000	    -28.95607535	     -0.52179286	     24.37247600	     85.18111575	    -21.70519151	      2.50748066	     43.87414760	     81.96589167	    148.17189647	      2.92858339	     34.07917641	     47.73744104	     86.18066545
      8.15000000	    -11.55583208	      2.21713494	      2.95944786	     -0.54356213	      0.58246671	     -0.66937325	     92.19339378	     -0.15516494	     -5.76662325	     40.75129269	     15.32534960	      5.11241031	      0.00000000	     91.60136876	      8.48322845	     -1.51250287	     33.20599976	     -4.58995235	      0.27390899	      0.00000000	    -29.68252205	     -0.85774482	     25.41949741	     86.51791350	    -22.41792018	      0.91828498	     42.07546468	     80.39936518	    151.02704002	      5.77647527	     36.49926781	     43.53254393	     84.56649833
      8.16666670	    -11.90189305	      1.49765718	      3.65962370	     -0.54260438	      0.57784894	     -0.67080268	     92.19754253	     -0.47112220	     -5.96653527	     38.80652398	     12.66485074	      8.83350800	      0.00000000	     92.40927333	      8.69125934	     -3.00616768	     35.67516934	     -2.51585762	      0.15923052	      0.00000000	    -30.93247650	     -0.13247435	     23.95349431	     85.77287299	    -22.26008025	     -1.32144332	     42.37500551	     78.54476620	    155.08714563	      9.06602353	     41.10655094	     37.40213468	     82.22303426
      8.18333330	    -12.06380665	      1.31429108	      3.42116375	     -0.53966821	      0.57681077	     -0.66686100	     92.21335076	      0.09794232	     -5.72557335	     38.35385999	     11.93880671	     10.39551174	      0.00000000	     92.45025740	      8.07405069	     -4.30899529	     36.27081390	     -1.56611256	      0.85775784	      0.00000000	    -32.20022365	      0.01027565	     24.19937567	     84.84043013	    -23.18981160	     -3.31277642	     41.82355261	     77.46958091	    155.88244730	     11.74651461	     42.08061198	     34.68942869	     80.61250013
      8.20000000	    -12.16340360	      1.26058630	      3.42160064	     -0.54259888	      0.58014463	     -0.66690651	     92.08253647	      0.11168930	     -5.10464974	     38.03427227	     11.56693011	      9.18284202	      0.00000000	     92.65477902	      8.01926023	     -4.68359109	     36.53818241	     -1.53909689	      1.25098631	      0.00000000	    -34.11143608	      0.44831335	     24.16867000	     85.19658925	    -24.07278018	     -4.06693109	     39.69713375	     76.93495147	    155.79116959	     14.25517006	     42.81308083	     32.88056403	     79.62887633
      8.21666670	    -12.82384965	      1.74136322	      3.24555789	     -0.54187577	      0.58163767	     -0.66855363	     92.68931143	      0.22781585	     -4.89367066	     38.96062367	     12.47692998	      8.29801774	      0.00000000	     93.09901454	      8.13821000	     -4.48654475	     36.12539310	     -1.76948315	     -0.26753637	      0.00000000	    -35.59341217	      0.45111821	     23.68835602	     85.76187517	    -24.90457522	     -4.05658006	     36.57368403	     76.20928959	    155.88310849	     16.99282797	     46.17737850	     29.12525485	     77.31370944
      8.23333330	    -14.40702059	      2.10233012	      2.03584186	     -0.53080777	      0.57544997	     -0.66603329	     94.51423138	      1.56881231	     -5.05360095	     41.07451730	     15.21304839	      6.68155175	      0.00000000	     95.05335662	      7.03468676	     -4.18749908	     37.49819346	     -0.21709312	      0.12096635	      0.00000000	    -35.61564027	      0.01863050	     25.03643464	     84.78845037	    -26.88301600	     -4.61760390	     33.93144080	     76.04500248	    154.46096501	     18.33381758	     47.86633540	     30.61340045	     76.98593313
